<mxfile host="65bd71144e">
    <diagram id="X-qH9RZNy7AVg1fc-ne6" name="Page-1">
        <mxGraphModel dx="5210" dy="3715" grid="1" gridSize="1" guides="1" tooltips="1" connect="1" arrows="1" fold="1" page="1" pageScale="1" pageWidth="1600" pageHeight="900" math="0" shadow="0">
            <root>
                <mxCell id="0"/>
                <mxCell id="1" parent="0"/>
                <mxCell id="107" value="" style="endArrow=none;html=1;fontFamily=Helvetica;fontSize=12;fontColor=rgb(240, 240, 240);entryX=0;entryY=0.5;entryDx=0;entryDy=0;fillColor=#76608a;strokeColor=#432D57;movable=1;resizable=1;rotatable=1;deletable=1;editable=1;connectable=1;strokeWidth=2;exitX=1.018;exitY=0.708;exitDx=0;exitDy=0;exitPerimeter=0;" parent="1" source="590" edge="1">
                    <mxGeometry width="50" height="50" relative="1" as="geometry">
                        <mxPoint x="551" y="396" as="sourcePoint"/>
                        <mxPoint x="576" y="396.05999999999995" as="targetPoint"/>
                    </mxGeometry>
                </mxCell>
                <mxCell id="543" value="" style="endArrow=none;html=1;fontFamily=Helvetica;fontSize=12;fontColor=rgb(240, 240, 240);exitX=0.5;exitY=1;exitDx=0;exitDy=0;exitPerimeter=0;fillColor=#f0a30a;strokeColor=#BD7000;movable=1;resizable=1;rotatable=1;deletable=1;editable=1;connectable=1;strokeWidth=2;" parent="1" edge="1">
                    <mxGeometry width="50" height="50" relative="1" as="geometry">
                        <mxPoint x="672.9999999999995" y="393.82" as="sourcePoint"/>
                        <mxPoint x="725.9999999999995" y="393.82" as="targetPoint"/>
                    </mxGeometry>
                </mxCell>
                <mxCell id="544" value="" style="endArrow=none;html=1;fontFamily=Helvetica;fontSize=12;fontColor=rgb(240, 240, 240);exitX=0.5;exitY=1;exitDx=0;exitDy=0;exitPerimeter=0;fillColor=#f0a30a;strokeColor=#BD7000;movable=1;resizable=1;rotatable=1;deletable=1;editable=1;connectable=1;strokeWidth=2;" parent="1" edge="1">
                    <mxGeometry width="50" height="50" relative="1" as="geometry">
                        <mxPoint x="672.9999999999995" y="492.73" as="sourcePoint"/>
                        <mxPoint x="725.9999999999995" y="492.73" as="targetPoint"/>
                    </mxGeometry>
                </mxCell>
                <mxCell id="583" value="" style="rounded=1;arcSize=50;whiteSpace=wrap;html=1;perimeterSpacing=1;strokeWidth=2;flipV=0;flipH=0;direction=east;container=0;fillColor=#f0a30a;strokeColor=#BD7000;movable=1;resizable=1;rotatable=1;deletable=1;editable=1;connectable=1;fontColor=#000000;aspect=fixed;" parent="1" vertex="1">
                    <mxGeometry x="575.3299999999999" y="370.05" width="100" height="50" as="geometry"/>
                </mxCell>
                <mxCell id="579" value="" style="rounded=0;whiteSpace=wrap;html=1;fillColor=#1ba1e2;fontColor=#ffffff;strokeColor=#006EAF;" parent="1" vertex="1">
                    <mxGeometry x="1270" y="406.05" width="4" height="74" as="geometry"/>
                </mxCell>
                <mxCell id="580" value="" style="rounded=0;whiteSpace=wrap;html=1;fillColor=#1ba1e2;fontColor=#ffffff;strokeColor=#006EAF;" parent="1" vertex="1">
                    <mxGeometry x="1278" y="406.05" width="4" height="74" as="geometry"/>
                </mxCell>
                <mxCell id="575" value="" style="rounded=0;whiteSpace=wrap;html=1;fillColor=#1ba1e2;fontColor=#ffffff;strokeColor=#006EAF;" parent="1" vertex="1">
                    <mxGeometry x="1238" y="406.14" width="4" height="74" as="geometry"/>
                </mxCell>
                <mxCell id="576" value="" style="rounded=0;whiteSpace=wrap;html=1;fillColor=#1ba1e2;fontColor=#ffffff;strokeColor=#006EAF;" parent="1" vertex="1">
                    <mxGeometry x="1246" y="406.14" width="4" height="74" as="geometry"/>
                </mxCell>
                <mxCell id="577" value="" style="rounded=0;whiteSpace=wrap;html=1;fillColor=#1ba1e2;fontColor=#ffffff;strokeColor=#006EAF;" parent="1" vertex="1">
                    <mxGeometry x="1254" y="406.14" width="4" height="74" as="geometry"/>
                </mxCell>
                <mxCell id="578" value="" style="rounded=0;whiteSpace=wrap;html=1;fillColor=#1ba1e2;fontColor=#ffffff;strokeColor=#006EAF;" parent="1" vertex="1">
                    <mxGeometry x="1262" y="406.14" width="4" height="74" as="geometry"/>
                </mxCell>
                <mxCell id="386" value="" style="verticalLabelPosition=bottom;align=center;html=1;verticalAlign=top;pointerEvents=1;dashed=0;shape=mxgraph.pid2valves.valve;valveType=gate;actuator=man;rounded=1;strokeColor=#432D57;strokeWidth=2;fontFamily=Helvetica;fontSize=12;fontColor=#ffffff;fillColor=#76608a;flipV=1;container=0;movable=1;resizable=1;rotatable=1;deletable=1;editable=1;connectable=1;direction=west;flipH=1;" parent="1" vertex="1">
                    <mxGeometry x="228.27" y="413.86" width="48" height="42" as="geometry"/>
                </mxCell>
                <mxCell id="157" value="" style="endArrow=none;html=1;fontFamily=Helvetica;fontSize=12;fontColor=rgb(240, 240, 240);exitX=0.47;exitY=0;exitDx=0;exitDy=0;exitPerimeter=0;fillColor=#f0a30a;strokeColor=#BD7000;movable=1;resizable=1;rotatable=1;deletable=1;editable=1;connectable=1;strokeWidth=2;entryX=0.982;entryY=0.707;entryDx=0;entryDy=0;entryPerimeter=0;" parent="1" source="180" target="178" edge="1">
                    <mxGeometry width="50" height="50" relative="1" as="geometry">
                        <mxPoint x="606.4100000000001" y="605" as="sourcePoint"/>
                        <mxPoint x="692" y="593" as="targetPoint"/>
                    </mxGeometry>
                </mxCell>
                <mxCell id="158" value="" style="rounded=1;arcSize=50;whiteSpace=wrap;html=1;perimeterSpacing=1;strokeWidth=2;flipV=0;flipH=0;direction=east;container=0;fillColor=#f0a30a;strokeColor=#BD7000;movable=1;resizable=1;rotatable=1;deletable=1;editable=1;connectable=1;fontColor=#000000;aspect=fixed;" parent="1" vertex="1">
                    <mxGeometry x="575" y="467" width="100" height="50" as="geometry"/>
                </mxCell>
                <mxCell id="163" value="" style="verticalLabelPosition=bottom;align=center;html=1;verticalAlign=top;pointerEvents=1;dashed=0;shape=mxgraph.pid2valves.valve;valveType=gate;actuator=man;rounded=1;strokeColor=#BD7000;strokeWidth=2;fontFamily=Helvetica;fontSize=12;fillColor=#f0a30a;rotation=0;shadow=0;direction=south;flipH=1;container=0;movable=1;resizable=1;rotatable=1;deletable=1;editable=1;connectable=1;fontColor=#000000;" parent="1" vertex="1">
                    <mxGeometry x="771" y="514" width="42" height="48" as="geometry"/>
                </mxCell>
                <mxCell id="167" value="" style="verticalLabelPosition=bottom;aspect=fixed;html=1;verticalAlign=top;fillColor=#f0a30a;align=center;outlineConnect=0;shape=mxgraph.fluid_power.x11980;points=[[0.5,0,0],[0.5,1,0]];rounded=1;strokeColor=#BD7000;strokeWidth=2;fontFamily=Helvetica;fontSize=12;direction=east;container=0;movable=1;resizable=1;rotatable=1;deletable=1;editable=1;connectable=1;fontColor=#000000;" parent="1" vertex="1">
                    <mxGeometry x="789.96" y="460.2700000000001" width="20.79" height="35.73" as="geometry"/>
                </mxCell>
                <mxCell id="169" value="" style="endArrow=none;html=1;fontFamily=Helvetica;fontSize=12;fontColor=rgb(240, 240, 240);exitX=0.5;exitY=0;exitDx=0;exitDy=0;exitPerimeter=0;fillColor=#f0a30a;strokeColor=#BD7000;movable=1;resizable=1;rotatable=1;deletable=1;editable=1;connectable=1;strokeWidth=2;" parent="1" source="167" edge="1">
                    <mxGeometry width="50" height="50" relative="1" as="geometry">
                        <mxPoint x="783.4900000000002" y="436" as="sourcePoint"/>
                        <mxPoint x="800.4899999999998" y="442" as="targetPoint"/>
                    </mxGeometry>
                </mxCell>
                <mxCell id="170" value="" style="endArrow=none;html=1;fontFamily=Helvetica;fontSize=12;fontColor=rgb(240, 240, 240);entryX=0.5;entryY=1;entryDx=0;entryDy=0;entryPerimeter=0;exitX=0;exitY=0.699;exitDx=0;exitDy=0;exitPerimeter=0;fillColor=#f0a30a;strokeColor=#BD7000;movable=1;resizable=1;rotatable=1;deletable=1;editable=1;connectable=1;strokeWidth=2;" parent="1" source="163" target="167" edge="1">
                    <mxGeometry width="50" height="50" relative="1" as="geometry">
                        <mxPoint x="800.49" y="508" as="sourcePoint"/>
                        <mxPoint x="836.4900000000002" y="430.0050000000001" as="targetPoint"/>
                    </mxGeometry>
                </mxCell>
                <mxCell id="171" value="" style="endArrow=none;html=1;fontFamily=Helvetica;fontSize=12;fontColor=rgb(240, 240, 240);entryX=0;entryY=0.5;entryDx=0;entryDy=0;fillColor=#76608a;strokeColor=#432D57;movable=1;resizable=1;rotatable=1;deletable=1;editable=1;connectable=1;strokeWidth=2;" parent="1" target="158" edge="1">
                    <mxGeometry width="50" height="50" relative="1" as="geometry">
                        <mxPoint x="453" y="492" as="sourcePoint"/>
                        <mxPoint x="577.0000000000002" y="458.1650000000002" as="targetPoint"/>
                    </mxGeometry>
                </mxCell>
                <mxCell id="173" value="" style="endArrow=none;html=1;fontFamily=Helvetica;fontSize=12;fontColor=rgb(240, 240, 240);entryX=0.5;entryY=1;entryDx=0;entryDy=0;entryPerimeter=0;exitX=0.5;exitY=0;exitDx=0;exitDy=0;exitPerimeter=0;fillColor=#f0a30a;strokeColor=#BD7000;movable=1;resizable=1;rotatable=1;deletable=1;editable=1;connectable=1;strokeWidth=2;" parent="1" edge="1">
                    <mxGeometry width="50" height="50" relative="1" as="geometry">
                        <mxPoint x="843" y="442.00499999999965" as="sourcePoint"/>
                        <mxPoint x="843" y="442.00000000000045" as="targetPoint"/>
                    </mxGeometry>
                </mxCell>
                <mxCell id="178" value="" style="verticalLabelPosition=bottom;align=center;html=1;verticalAlign=top;pointerEvents=1;dashed=0;shape=mxgraph.pid2valves.valve;valveType=gate;actuator=man;rounded=1;strokeColor=#BD7000;strokeWidth=2;fontFamily=Helvetica;fontSize=12;fillColor=#f0a30a;rotation=0;shadow=0;direction=east;flipV=1;container=0;movable=1;resizable=1;rotatable=1;deletable=1;editable=1;connectable=1;fontColor=#000000;" parent="1" vertex="1">
                    <mxGeometry x="637.3299999999999" y="581" width="48" height="42" as="geometry"/>
                </mxCell>
                <mxCell id="180" value="" style="verticalLabelPosition=bottom;aspect=fixed;html=1;verticalAlign=top;fillColor=#f0a30a;align=center;outlineConnect=0;shape=mxgraph.fluid_power.x10500;points=[[0.47,0,0],[0.47,1,0]];rounded=1;strokeColor=#BD7000;strokeWidth=2;fontFamily=Helvetica;fontSize=12;direction=south;container=0;movable=1;resizable=1;rotatable=1;deletable=1;editable=1;connectable=1;fontColor=#000000;" parent="1" vertex="1">
                    <mxGeometry x="576.6800000000001" y="576.6200000000001" width="33.8" height="35.38" as="geometry"/>
                </mxCell>
                <mxCell id="181" value="" style="verticalLabelPosition=bottom;align=center;html=1;verticalAlign=top;pointerEvents=1;dashed=0;shape=mxgraph.pid2valves.valve;valveType=gate;actuator=solenoid;rounded=1;strokeColor=#BD7000;strokeWidth=3;fontFamily=Helvetica;fontSize=12;fillColor=#f0a30a;flipV=1;container=0;movable=1;resizable=1;rotatable=1;deletable=1;editable=1;connectable=1;fontColor=#000000;aspect=fixed;flipH=1;" parent="1" vertex="1">
                    <mxGeometry x="637.3299999999999" y="673" width="53.93" height="45.5" as="geometry"/>
                </mxCell>
                <mxCell id="182" value="" style="verticalLabelPosition=bottom;aspect=fixed;html=1;verticalAlign=top;fillColor=#f0a30a;align=center;outlineConnect=0;shape=mxgraph.fluid_power.x11820;points=[[0.5,1,0]];rounded=1;strokeColor=#BD7000;strokeWidth=2;fontFamily=Helvetica;fontSize=12;direction=north;flipH=0;flipV=0;container=0;movable=1;resizable=1;rotatable=1;deletable=1;editable=1;connectable=1;fontColor=#000000;" parent="1" vertex="1">
                    <mxGeometry x="577.27" y="674" width="36.06" height="24" as="geometry"/>
                </mxCell>
                <mxCell id="183" value="" style="verticalLabelPosition=bottom;aspect=fixed;html=1;verticalAlign=top;fillColor=#f0a30a;align=center;outlineConnect=0;shape=mxgraph.fluid_power.x11820;points=[[0.5,1,0]];rounded=1;strokeColor=#BD7000;strokeWidth=2;fontFamily=Helvetica;fontSize=12;direction=west;flipH=1;flipV=0;container=0;movable=1;resizable=1;rotatable=1;deletable=1;editable=1;connectable=1;fontColor=#000000;" parent="1" vertex="1">
                    <mxGeometry x="613.3299999999999" y="714" width="24" height="36.06" as="geometry"/>
                </mxCell>
                <mxCell id="185" value="" style="endArrow=none;html=1;fontFamily=Helvetica;fontSize=12;fontColor=rgb(240, 240, 240);entryX=0.5;entryY=1;entryDx=0;entryDy=0;entryPerimeter=0;exitX=0.5;exitY=1;exitDx=0;exitDy=0;fillColor=#f0a30a;strokeColor=#BD7000;movable=1;resizable=1;rotatable=1;deletable=1;editable=1;connectable=1;strokeWidth=2;" parent="1" source="158" target="183" edge="1">
                    <mxGeometry width="50" height="50" relative="1" as="geometry">
                        <mxPoint x="625" y="534" as="sourcePoint"/>
                        <mxPoint x="621" y="438" as="targetPoint"/>
                    </mxGeometry>
                </mxCell>
                <mxCell id="187" value="" style="verticalLabelPosition=bottom;aspect=fixed;html=1;verticalAlign=top;fillColor=#f0a30a;align=center;outlineConnect=0;shape=mxgraph.fluid_power.x11700;points=[[0.5,0,0],[0.5,1,0]];rounded=1;strokeColor=#BD7000;strokeWidth=2;fontFamily=Helvetica;fontSize=12;direction=north;container=0;movable=1;resizable=1;rotatable=1;deletable=1;editable=1;connectable=1;fontColor=#000000;" parent="1" vertex="1">
                    <mxGeometry x="808" y="576.1" width="42.78" height="7.9" as="geometry"/>
                </mxCell>
                <mxCell id="188" value="" style="shape=partialRectangle;whiteSpace=wrap;html=1;bottom=0;right=0;fillColor=none;rounded=1;strokeColor=#BD7000;strokeWidth=2;fontFamily=Helvetica;fontSize=12;flipV=1;container=0;movable=1;resizable=1;rotatable=1;deletable=1;editable=1;connectable=1;fontColor=#000000;" parent="1" vertex="1">
                    <mxGeometry x="801" y="562" width="12" height="18" as="geometry"/>
                </mxCell>
                <mxCell id="93" value="" style="endArrow=none;html=1;fontFamily=Helvetica;fontSize=12;fontColor=rgb(240, 240, 240);exitX=0.47;exitY=0;exitDx=0;exitDy=0;exitPerimeter=0;fillColor=#f0a30a;strokeColor=#BD7000;movable=1;resizable=1;rotatable=1;deletable=1;editable=1;connectable=1;strokeWidth=2;" parent="1" source="116" edge="1">
                    <mxGeometry width="50" height="50" relative="1" as="geometry">
                        <mxPoint x="606.4100000000001" y="283.06" as="sourcePoint"/>
                        <mxPoint x="685" y="293.06" as="targetPoint"/>
                    </mxGeometry>
                </mxCell>
                <mxCell id="95" value="" style="verticalLabelPosition=bottom;align=center;html=1;verticalAlign=top;pointerEvents=1;dashed=0;shape=mxgraph.pid2valves.valve;valveType=gate;actuator=man;rounded=1;strokeColor=#BD7000;strokeWidth=2;fontFamily=Helvetica;fontSize=12;fontColor=#000000;fillColor=#f0a30a;movable=1;resizable=1;rotatable=1;deletable=1;editable=1;connectable=1;container=0;" parent="1" vertex="1">
                    <mxGeometry x="836" y="412.10999999999996" width="48" height="42" as="geometry"/>
                </mxCell>
                <mxCell id="100" value="" style="verticalLabelPosition=bottom;aspect=fixed;html=1;verticalAlign=top;fillColor=#f0a30a;align=center;outlineConnect=0;shape=mxgraph.fluid_power.x11910;points=[[0.5,0,0],[0.5,1,0]];rounded=1;strokeColor=#BD7000;strokeWidth=2;fontFamily=Helvetica;fontSize=12;fontColor=#000000;direction=south;movable=1;resizable=1;rotatable=1;deletable=1;editable=1;connectable=1;container=0;" parent="1" vertex="1">
                    <mxGeometry x="1041" y="431.30999999999995" width="47.23" height="23.5" as="geometry"/>
                </mxCell>
                <mxCell id="101" value="" style="verticalLabelPosition=bottom;aspect=fixed;html=1;verticalAlign=top;fillColor=#f0a30a;align=center;outlineConnect=0;shape=mxgraph.fluid_power.x11980;points=[[0.5,0,0],[0.5,1,0]];rounded=1;strokeColor=#BD7000;strokeWidth=2;fontFamily=Helvetica;fontSize=12;fontColor=#000000;direction=south;movable=1;resizable=1;rotatable=1;deletable=1;editable=1;connectable=1;container=0;" parent="1" vertex="1">
                    <mxGeometry x="1095" y="432.65999999999997" width="35.73" height="20.79" as="geometry"/>
                </mxCell>
                <mxCell id="111" value="" style="endArrow=none;html=1;fontFamily=Helvetica;fontSize=12;fontColor=rgb(240, 240, 240);entryX=-0.01;entryY=0.684;entryDx=0;entryDy=0;entryPerimeter=0;exitX=1.007;exitY=0.701;exitDx=0;exitDy=0;exitPerimeter=0;fillColor=#f0a30a;strokeColor=#BD7000;movable=1;resizable=1;rotatable=1;deletable=1;editable=1;connectable=1;strokeWidth=2;" parent="1" source="95" target="467" edge="1">
                    <mxGeometry width="50" height="50" relative="1" as="geometry">
                        <mxPoint x="890" y="441.60999999999996" as="sourcePoint"/>
                        <mxPoint x="908" y="441.67000000000013" as="targetPoint"/>
                    </mxGeometry>
                </mxCell>
                <mxCell id="114" value="" style="verticalLabelPosition=bottom;align=center;html=1;verticalAlign=top;pointerEvents=1;dashed=0;shape=mxgraph.pid2valves.valve;valveType=gate;actuator=man;rounded=1;strokeColor=#BD7000;strokeWidth=2;fontFamily=Helvetica;fontSize=12;fontColor=#000000;fillColor=#f0a30a;rotation=0;shadow=0;direction=east;movable=1;resizable=1;rotatable=1;deletable=1;editable=1;connectable=1;container=0;" parent="1" vertex="1">
                    <mxGeometry x="637.3299999999999" y="264.06" width="48" height="42" as="geometry"/>
                </mxCell>
                <mxCell id="116" value="" style="verticalLabelPosition=bottom;aspect=fixed;html=1;verticalAlign=top;fillColor=#f0a30a;align=center;outlineConnect=0;shape=mxgraph.fluid_power.x10500;points=[[0.47,0,0],[0.47,1,0]];rounded=1;strokeColor=#BD7000;strokeWidth=2;fontFamily=Helvetica;fontSize=12;fontColor=#000000;direction=south;movable=1;resizable=1;rotatable=1;deletable=1;editable=1;connectable=1;container=0;" parent="1" vertex="1">
                    <mxGeometry x="576.6800000000001" y="276.06" width="33.8" height="35.38" as="geometry"/>
                </mxCell>
                <mxCell id="118" value="" style="verticalLabelPosition=bottom;aspect=fixed;html=1;verticalAlign=top;fillColor=#f0a30a;align=center;outlineConnect=0;shape=mxgraph.fluid_power.x11820;points=[[0.5,1,0]];rounded=1;strokeColor=#BD7000;strokeWidth=2;fontFamily=Helvetica;fontSize=12;fontColor=#000000;direction=north;flipH=0;flipV=1;movable=1;resizable=1;rotatable=1;deletable=1;editable=1;connectable=1;container=0;" parent="1" vertex="1">
                    <mxGeometry x="577.27" y="190.56" width="36.06" height="24" as="geometry"/>
                </mxCell>
                <mxCell id="119" value="" style="verticalLabelPosition=bottom;aspect=fixed;html=1;verticalAlign=top;fillColor=#f0a30a;align=center;outlineConnect=0;shape=mxgraph.fluid_power.x11820;points=[[0.5,1,0]];rounded=1;strokeColor=#BD7000;strokeWidth=2;fontFamily=Helvetica;fontSize=12;fontColor=#000000;direction=west;flipH=1;flipV=1;movable=1;resizable=1;rotatable=1;deletable=1;editable=1;connectable=1;container=0;" parent="1" vertex="1">
                    <mxGeometry x="613.3299999999999" y="138" width="24" height="36.06" as="geometry"/>
                </mxCell>
                <mxCell id="121" value="" style="endArrow=none;html=1;fontFamily=Helvetica;fontSize=12;fontColor=rgb(240, 240, 240);entryX=0.5;entryY=1;entryDx=0;entryDy=0;entryPerimeter=0;exitX=0.5;exitY=0;exitDx=0;exitDy=0;fillColor=#f0a30a;strokeColor=#BD7000;movable=1;resizable=1;rotatable=1;deletable=1;editable=1;connectable=1;strokeWidth=2;" parent="1" target="119" edge="1">
                    <mxGeometry width="50" height="50" relative="1" as="geometry">
                        <mxPoint x="625.0000000000001" y="371.05999999999995" as="sourcePoint"/>
                        <mxPoint x="621" y="450.05999999999995" as="targetPoint"/>
                    </mxGeometry>
                </mxCell>
                <mxCell id="122" value="" style="endArrow=none;html=1;fontFamily=Helvetica;fontSize=12;fontColor=rgb(240, 240, 240);exitX=0.5;exitY=1;exitDx=0;exitDy=0;exitPerimeter=0;entryX=0.008;entryY=0.711;entryDx=0;entryDy=0;entryPerimeter=0;fillColor=#f0a30a;strokeColor=#BD7000;movable=1;resizable=1;rotatable=1;deletable=1;editable=1;connectable=1;strokeWidth=2;" parent="1" source="118" edge="1">
                    <mxGeometry width="50" height="50" relative="1" as="geometry">
                        <mxPoint x="610.48" y="214.5586" as="sourcePoint"/>
                        <mxPoint x="637.654" y="202.85550000000012" as="targetPoint"/>
                    </mxGeometry>
                </mxCell>
                <mxCell id="418" value="" style="rounded=1;arcSize=50;whiteSpace=wrap;html=1;perimeterSpacing=1;strokeWidth=2;flipV=0;flipH=0;direction=south;container=0;fillColor=#76608a;fontColor=#ffffff;strokeColor=#432D57;movable=1;resizable=1;rotatable=1;deletable=1;editable=1;connectable=1;aspect=fixed;" parent="1" vertex="1">
                    <mxGeometry x="-68" y="320.44999999999993" width="64" height="223" as="geometry"/>
                </mxCell>
                <mxCell id="426" value="" style="endArrow=none;html=1;strokeWidth=2;fillColor=#76608a;strokeColor=#432D57;" parent="1" edge="1">
                    <mxGeometry width="50" height="50" relative="1" as="geometry">
                        <mxPoint x="116" y="293" as="sourcePoint"/>
                        <mxPoint x="57" y="293" as="targetPoint"/>
                    </mxGeometry>
                </mxCell>
                <mxCell id="457" value="" style="endArrow=none;html=1;strokeWidth=2;fontFamily=Helvetica;fontSize=12;fontColor=default;fillColor=#76608a;strokeColor=#432D57;exitX=0;exitY=0.5;exitDx=0;exitDy=0;" parent="1" source="418" edge="1">
                    <mxGeometry width="50" height="50" relative="1" as="geometry">
                        <mxPoint x="-36.079999999999984" y="320.44999999999993" as="sourcePoint"/>
                        <mxPoint x="-36.079999999999984" y="275.44999999999993" as="targetPoint"/>
                    </mxGeometry>
                </mxCell>
                <mxCell id="462" value="" style="endArrow=none;html=1;strokeWidth=2;fontFamily=Helvetica;fontSize=12;fontColor=default;" parent="1" edge="1">
                    <mxGeometry width="50" height="50" relative="1" as="geometry">
                        <mxPoint x="-416" y="904" as="sourcePoint"/>
                        <mxPoint x="-416" as="targetPoint"/>
                    </mxGeometry>
                </mxCell>
                <mxCell id="463" value="" style="endArrow=none;html=1;strokeWidth=2;fontFamily=Helvetica;fontSize=12;fontColor=default;" parent="1" edge="1">
                    <mxGeometry width="50" height="50" relative="1" as="geometry">
                        <mxPoint x="1985" y="892" as="sourcePoint"/>
                        <mxPoint x="1985" y="-12" as="targetPoint"/>
                    </mxGeometry>
                </mxCell>
                <mxCell id="467" value="" style="verticalLabelPosition=bottom;align=center;html=1;verticalAlign=top;pointerEvents=1;dashed=0;shape=mxgraph.pid2valves.valve;valveType=gate;actuator=solenoid;rounded=1;strokeColor=#BD7000;strokeWidth=3;fontFamily=Helvetica;fontSize=12;fillColor=#f0a30a;flipV=1;container=0;movable=1;resizable=1;rotatable=1;deletable=1;editable=1;connectable=1;fontColor=#000000;aspect=fixed;rotation=-180;flipH=1;" parent="1" vertex="1">
                    <mxGeometry x="921" y="410.36" width="53.93" height="45.5" as="geometry"/>
                </mxCell>
                <mxCell id="468" value="" style="verticalLabelPosition=bottom;align=center;html=1;verticalAlign=top;pointerEvents=1;dashed=0;shape=mxgraph.pid2valves.valve;valveType=gate;actuator=solenoid;rounded=1;strokeColor=#BD7000;strokeWidth=3;fontFamily=Helvetica;fontSize=12;fillColor=#f0a30a;flipV=1;container=0;movable=1;resizable=1;rotatable=1;deletable=1;editable=1;connectable=1;fontColor=#000000;aspect=fixed;rotation=-180;flipH=1;" parent="1" vertex="1">
                    <mxGeometry x="634.36" y="171" width="53.93" height="45.5" as="geometry"/>
                </mxCell>
                <mxCell id="186" value="" style="endArrow=none;html=1;fontFamily=Helvetica;fontSize=12;fontColor=rgb(240, 240, 240);exitX=0.5;exitY=1;exitDx=0;exitDy=0;exitPerimeter=0;fillColor=#f0a30a;strokeColor=#BD7000;movable=1;resizable=1;rotatable=1;deletable=1;editable=1;connectable=1;strokeWidth=2;" parent="1" source="182" edge="1">
                    <mxGeometry width="50" height="50" relative="1" as="geometry">
                        <mxPoint x="610.48" y="673.5014000000001" as="sourcePoint"/>
                        <mxPoint x="638" y="686" as="targetPoint"/>
                    </mxGeometry>
                </mxCell>
                <mxCell id="476" value="" style="verticalLabelPosition=bottom;align=center;html=1;verticalAlign=top;pointerEvents=1;dashed=0;shape=mxgraph.pid2valves.valve;valveType=gate;actuator=solenoid;rounded=1;strokeColor=#432D57;strokeWidth=3;fontFamily=Helvetica;fontSize=12;fillColor=#76608a;flipV=1;container=0;movable=1;resizable=1;rotatable=1;deletable=1;editable=1;connectable=1;fontColor=#ffffff;aspect=fixed;rotation=-180;flipH=1;direction=west;" parent="1" vertex="1">
                    <mxGeometry x="399" y="477.45000000000005" width="53.93" height="45.5" as="geometry"/>
                </mxCell>
                <mxCell id="477" value="" style="verticalLabelPosition=bottom;align=center;html=1;verticalAlign=top;pointerEvents=1;dashed=0;shape=mxgraph.pid2valves.valve;valveType=gate;actuator=solenoid;rounded=1;strokeColor=#432D57;strokeWidth=3;fontFamily=Helvetica;fontSize=12;fillColor=#76608a;flipV=1;container=0;movable=1;resizable=1;rotatable=1;deletable=1;editable=1;connectable=1;fontColor=#ffffff;aspect=fixed;rotation=-180;flipH=1;" parent="1" vertex="1">
                    <mxGeometry x="114.78" y="261.69999999999993" width="53.93" height="45.5" as="geometry"/>
                </mxCell>
                <mxCell id="479" value="&lt;font style=&quot;font-size: 10px;&quot;&gt;&lt;b&gt;SV51&lt;br&gt;&lt;/b&gt;&lt;/font&gt;" style="text;html=1;strokeColor=none;fillColor=none;align=center;verticalAlign=middle;whiteSpace=wrap;rounded=0;labelBackgroundColor=none;fontFamily=Helvetica;fontSize=12;fontColor=default;" parent="1" vertex="1">
                    <mxGeometry x="115.24" y="233.99999999999997" width="53" height="29.45" as="geometry"/>
                </mxCell>
                <mxCell id="483" value="&lt;font style=&quot;font-size: 10px;&quot;&gt;&lt;b&gt;SV52&lt;/b&gt;&lt;/font&gt;" style="text;html=1;strokeColor=none;fillColor=none;align=center;verticalAlign=middle;whiteSpace=wrap;rounded=0;labelBackgroundColor=none;fontFamily=Helvetica;fontSize=12;fontColor=default;" parent="1" vertex="1">
                    <mxGeometry x="399" y="521.0000000000001" width="53" height="29.45" as="geometry"/>
                </mxCell>
                <mxCell id="488" value="&lt;font style=&quot;font-size: 14px;&quot;&gt;&lt;b&gt;&lt;font color=&quot;#000000&quot; style=&quot;font-size: 14px;&quot;&gt;Air&lt;/font&gt;&lt;font color=&quot;#000000&quot; style=&quot;font-size: 14px;&quot;&gt;&amp;nbsp;&lt;br&gt;200 bar&lt;br&gt;13.5L&lt;/font&gt;&lt;/b&gt;&lt;br&gt;&lt;/font&gt;" style="text;html=1;strokeColor=none;fillColor=#76608a;align=center;verticalAlign=middle;whiteSpace=wrap;rounded=0;labelBackgroundColor=none;fontFamily=Helvetica;fontSize=12;fontColor=#ffffff;" parent="1" vertex="1">
                    <mxGeometry x="-60" y="409.9999999999999" width="53" height="29.45" as="geometry"/>
                </mxCell>
                <mxCell id="495" value="&lt;font style=&quot;font-size: 10px;&quot;&gt;&lt;b&gt;RV62&lt;/b&gt;&lt;/font&gt;" style="text;html=1;strokeColor=none;fillColor=none;align=center;verticalAlign=middle;whiteSpace=wrap;rounded=0;labelBackgroundColor=none;fontFamily=Helvetica;fontSize=12;fontColor=default;" parent="1" vertex="1">
                    <mxGeometry x="563" y="309" width="53" height="29.45" as="geometry"/>
                </mxCell>
                <mxCell id="496" value="&lt;font style=&quot;font-size: 10px;&quot;&gt;&lt;b&gt;PS62&lt;/b&gt;&lt;/font&gt;" style="text;html=1;strokeColor=none;fillColor=none;align=center;verticalAlign=middle;whiteSpace=wrap;rounded=0;labelBackgroundColor=none;fontFamily=Helvetica;fontSize=12;fontColor=default;" parent="1" vertex="1">
                    <mxGeometry x="562" y="211" width="53" height="29.45" as="geometry"/>
                </mxCell>
                <mxCell id="497" value="&lt;font style=&quot;font-size: 10px;&quot;&gt;&lt;b&gt;PG62&lt;/b&gt;&lt;/font&gt;" style="text;html=1;strokeColor=none;fillColor=none;align=center;verticalAlign=middle;whiteSpace=wrap;rounded=0;labelBackgroundColor=none;fontFamily=Helvetica;fontSize=12;fontColor=default;" parent="1" vertex="1">
                    <mxGeometry x="598" y="110.00000000000001" width="53" height="29.45" as="geometry"/>
                </mxCell>
                <mxCell id="498" value="&lt;font style=&quot;font-size: 10px;&quot;&gt;&lt;b&gt;SV62&lt;/b&gt;&lt;/font&gt;" style="text;html=1;strokeColor=none;fillColor=none;align=center;verticalAlign=middle;whiteSpace=wrap;rounded=0;labelBackgroundColor=none;fontFamily=Helvetica;fontSize=12;fontColor=default;" parent="1" vertex="1">
                    <mxGeometry x="634" y="213" width="53" height="29.45" as="geometry"/>
                </mxCell>
                <mxCell id="499" value="&lt;font style=&quot;font-size: 10px;&quot;&gt;&lt;b&gt;MV62&lt;/b&gt;&lt;/font&gt;" style="text;html=1;strokeColor=none;fillColor=none;align=center;verticalAlign=middle;whiteSpace=wrap;rounded=0;labelBackgroundColor=none;fontFamily=Helvetica;fontSize=12;fontColor=default;" parent="1" vertex="1">
                    <mxGeometry x="634.36" y="301" width="53" height="29.45" as="geometry"/>
                </mxCell>
                <mxCell id="503" value="&lt;span style=&quot;font-size: 10px;&quot;&gt;&lt;b&gt;FM61&lt;/b&gt;&lt;/span&gt;" style="text;html=1;strokeColor=none;fillColor=none;align=center;verticalAlign=middle;whiteSpace=wrap;rounded=0;labelBackgroundColor=none;fontFamily=Helvetica;fontSize=12;fontColor=default;" parent="1" vertex="1">
                    <mxGeometry x="1038.12" y="401.86000000000007" width="53" height="29.45" as="geometry"/>
                </mxCell>
                <mxCell id="505" value="&lt;font style=&quot;font-size: 10px;&quot;&gt;&lt;b&gt;RV61&lt;/b&gt;&lt;/font&gt;" style="text;html=1;strokeColor=none;fillColor=none;align=center;verticalAlign=middle;whiteSpace=wrap;rounded=0;labelBackgroundColor=none;fontFamily=Helvetica;fontSize=12;fontColor=default;" parent="1" vertex="1">
                    <mxGeometry x="562" y="549" width="53" height="29.45" as="geometry"/>
                </mxCell>
                <mxCell id="506" value="&lt;font style=&quot;font-size: 10px;&quot;&gt;&lt;b&gt;MV61&lt;/b&gt;&lt;/font&gt;" style="text;html=1;strokeColor=none;fillColor=none;align=center;verticalAlign=middle;whiteSpace=wrap;rounded=0;labelBackgroundColor=none;fontFamily=Helvetica;fontSize=12;fontColor=default;" parent="1" vertex="1">
                    <mxGeometry x="637.33" y="554" width="53" height="29.45" as="geometry"/>
                </mxCell>
                <mxCell id="507" value="&lt;span style=&quot;font-size: 10px;&quot;&gt;&lt;b&gt;PS61&lt;/b&gt;&lt;/span&gt;" style="text;html=1;strokeColor=none;fillColor=none;align=center;verticalAlign=middle;whiteSpace=wrap;rounded=0;labelBackgroundColor=none;fontFamily=Helvetica;fontSize=12;fontColor=default;" parent="1" vertex="1">
                    <mxGeometry x="561" y="644.55" width="53" height="29.45" as="geometry"/>
                </mxCell>
                <mxCell id="508" value="&lt;span style=&quot;font-size: 10px;&quot;&gt;&lt;b&gt;SV61&lt;/b&gt;&lt;/span&gt;" style="text;html=1;strokeColor=none;fillColor=none;align=center;verticalAlign=middle;whiteSpace=wrap;rounded=0;labelBackgroundColor=none;fontFamily=Helvetica;fontSize=12;fontColor=default;" parent="1" vertex="1">
                    <mxGeometry x="637.33" y="647" width="53" height="29.45" as="geometry"/>
                </mxCell>
                <mxCell id="509" value="&lt;span style=&quot;font-size: 10px;&quot;&gt;&lt;b&gt;PG61&lt;/b&gt;&lt;/span&gt;" style="text;html=1;strokeColor=none;fillColor=none;align=center;verticalAlign=middle;whiteSpace=wrap;rounded=0;labelBackgroundColor=none;fontFamily=Helvetica;fontSize=12;fontColor=default;" parent="1" vertex="1">
                    <mxGeometry x="598.83" y="754" width="53" height="29.45" as="geometry"/>
                </mxCell>
                <mxCell id="512" value="&lt;font style=&quot;font-size: 10px;&quot;&gt;&lt;b&gt;MV63&lt;/b&gt;&lt;/font&gt;" style="text;html=1;strokeColor=none;fillColor=none;align=center;verticalAlign=middle;whiteSpace=wrap;rounded=0;labelBackgroundColor=none;fontFamily=Helvetica;fontSize=12;fontColor=default;" parent="1" vertex="1">
                    <mxGeometry x="804" y="521" width="53" height="29.45" as="geometry"/>
                </mxCell>
                <mxCell id="514" value="&lt;span style=&quot;font-size: 10px;&quot;&gt;&lt;b&gt;MV64&lt;/b&gt;&lt;/span&gt;" style="text;html=1;strokeColor=none;fillColor=none;align=center;verticalAlign=middle;whiteSpace=wrap;rounded=0;labelBackgroundColor=none;fontFamily=Helvetica;fontSize=12;fontColor=default;" parent="1" vertex="1">
                    <mxGeometry x="833" y="390.75000000000006" width="53" height="29.45" as="geometry"/>
                </mxCell>
                <mxCell id="516" value="&lt;span style=&quot;font-size: 10px;&quot;&gt;&lt;b&gt;SV63&lt;/b&gt;&lt;/span&gt;" style="text;html=1;strokeColor=none;fillColor=none;align=center;verticalAlign=middle;whiteSpace=wrap;rounded=0;labelBackgroundColor=none;fontFamily=Helvetica;fontSize=12;fontColor=default;" parent="1" vertex="1">
                    <mxGeometry x="921" y="383.00000000000006" width="53" height="29.45" as="geometry"/>
                </mxCell>
                <mxCell id="533" value="" style="endArrow=none;html=1;entryX=0.5;entryY=1;entryDx=0;entryDy=0;entryPerimeter=0;fillColor=#f0a30a;strokeColor=#BD7000;strokeWidth=2;exitX=0.5;exitY=0;exitDx=0;exitDy=0;exitPerimeter=0;" parent="1" source="100" target="101" edge="1">
                    <mxGeometry width="50" height="50" relative="1" as="geometry">
                        <mxPoint x="1066" y="443.31" as="sourcePoint"/>
                        <mxPoint x="1116" y="498.31" as="targetPoint"/>
                    </mxGeometry>
                </mxCell>
                <mxCell id="535" value="" style="endArrow=none;html=1;strokeWidth=2;fillColor=#f0a30a;strokeColor=#BD7000;exitX=0.5;exitY=1;exitDx=0;exitDy=0;exitPerimeter=0;entryX=1.017;entryY=0.726;entryDx=0;entryDy=0;entryPerimeter=0;" parent="1" source="100" target="467" edge="1">
                    <mxGeometry width="50" height="50" relative="1" as="geometry">
                        <mxPoint x="1054" y="409.31" as="sourcePoint"/>
                        <mxPoint x="1104" y="359.31" as="targetPoint"/>
                    </mxGeometry>
                </mxCell>
                <mxCell id="545" value="" style="endArrow=none;html=1;strokeWidth=2;fillColor=#f0a30a;strokeColor=#BD7000;" parent="1" edge="1">
                    <mxGeometry width="50" height="50" relative="1" as="geometry">
                        <mxPoint x="725" y="394" as="sourcePoint"/>
                        <mxPoint x="724.9999999999995" y="493.73" as="targetPoint"/>
                    </mxGeometry>
                </mxCell>
                <mxCell id="548" value="" style="endArrow=none;html=1;strokeWidth=2;fillColor=#f0a30a;strokeColor=#BD7000;" parent="1" edge="1">
                    <mxGeometry width="50" height="50" relative="1" as="geometry">
                        <mxPoint x="836" y="442" as="sourcePoint"/>
                        <mxPoint x="726" y="442" as="targetPoint"/>
                    </mxGeometry>
                </mxCell>
                <mxCell id="552" value="" style="endArrow=none;html=1;strokeWidth=2;fillColor=#76608a;strokeColor=#432D57;" parent="1" edge="1">
                    <mxGeometry width="50" height="50" relative="1" as="geometry">
                        <mxPoint x="55" y="444" as="sourcePoint"/>
                        <mxPoint x="228" y="444" as="targetPoint"/>
                    </mxGeometry>
                </mxCell>
                <mxCell id="555" value="" style="rounded=0;whiteSpace=wrap;html=1;fillColor=#1ba1e2;fontColor=#ffffff;strokeColor=#006EAF;" parent="1" vertex="1">
                    <mxGeometry x="1206" y="406" width="4" height="74" as="geometry"/>
                </mxCell>
                <mxCell id="557" value="" style="rounded=0;whiteSpace=wrap;html=1;fillColor=#1ba1e2;fontColor=#ffffff;strokeColor=#006EAF;" parent="1" vertex="1">
                    <mxGeometry x="1214" y="406" width="4" height="74" as="geometry"/>
                </mxCell>
                <mxCell id="558" value="" style="rounded=0;whiteSpace=wrap;html=1;fillColor=#1ba1e2;fontColor=#ffffff;strokeColor=#006EAF;" parent="1" vertex="1">
                    <mxGeometry x="1222" y="406" width="4" height="74" as="geometry"/>
                </mxCell>
                <mxCell id="559" value="" style="rounded=0;whiteSpace=wrap;html=1;fillColor=#1ba1e2;fontColor=#ffffff;strokeColor=#006EAF;" parent="1" vertex="1">
                    <mxGeometry x="1230" y="406" width="4" height="74" as="geometry"/>
                </mxCell>
                <mxCell id="566" value="" style="endArrow=none;html=1;strokeWidth=2;exitX=0.5;exitY=0;exitDx=0;exitDy=0;exitPerimeter=0;entryX=0;entryY=0.5;entryDx=0;entryDy=0;fillColor=#f0a30a;strokeColor=#BD7000;" parent="1" source="101" target="555" edge="1">
                    <mxGeometry width="50" height="50" relative="1" as="geometry">
                        <mxPoint x="1118" y="541" as="sourcePoint"/>
                        <mxPoint x="1168" y="491" as="targetPoint"/>
                    </mxGeometry>
                </mxCell>
                <mxCell id="258" value="" style="verticalLabelPosition=bottom;aspect=fixed;html=1;verticalAlign=top;fillColor=#f0a30a;align=center;outlineConnect=0;shape=mxgraph.fluid_power.x11850;points=[[0.5,1,0]];rounded=1;strokeColor=#BD7000;strokeWidth=2;fontFamily=Helvetica;fontSize=12;fontColor=#000000;flipH=1;flipV=1;container=0;movable=1;resizable=1;rotatable=1;deletable=1;editable=1;connectable=1;" parent="1" vertex="1">
                    <mxGeometry x="1153" y="442" width="23.92" height="36" as="geometry"/>
                </mxCell>
                <mxCell id="259" value="" style="verticalLabelPosition=bottom;aspect=fixed;html=1;verticalAlign=top;fillColor=#f0a30a;align=center;outlineConnect=0;shape=mxgraph.fluid_power.x11820;points=[[0.5,1,0]];rounded=1;strokeColor=#BD7000;strokeWidth=2;fontFamily=Helvetica;fontSize=12;fontColor=#000000;direction=west;flipH=1;flipV=1;movable=1;resizable=1;rotatable=1;deletable=1;editable=1;connectable=1;container=0;" parent="1" vertex="1">
                    <mxGeometry x="1152.9999999999998" y="407.93999999999994" width="24" height="36.06" as="geometry"/>
                </mxCell>
                <mxCell id="260" value="" style="verticalLabelPosition=bottom;aspect=fixed;html=1;verticalAlign=top;fillColor=#f0a30a;align=center;outlineConnect=0;shape=mxgraph.fluid_power.x11850;points=[[0.5,1,0]];rounded=1;strokeColor=#BD7000;strokeWidth=2;fontFamily=Helvetica;fontSize=12;fontColor=#000000;flipH=1;flipV=1;container=0;movable=1;resizable=1;rotatable=1;deletable=1;editable=1;connectable=1;" parent="1" vertex="1">
                    <mxGeometry x="1312" y="444" width="23.92" height="36" as="geometry"/>
                </mxCell>
                <mxCell id="261" value="" style="verticalLabelPosition=bottom;aspect=fixed;html=1;verticalAlign=top;fillColor=#f0a30a;align=center;outlineConnect=0;shape=mxgraph.fluid_power.x11820;points=[[0.5,1,0]];rounded=1;strokeColor=#BD7000;strokeWidth=2;fontFamily=Helvetica;fontSize=12;fontColor=#000000;direction=west;flipH=1;flipV=1;movable=1;resizable=1;rotatable=1;deletable=1;editable=1;connectable=1;container=0;" parent="1" vertex="1">
                    <mxGeometry x="1311.9999999999998" y="406.93999999999994" width="24" height="36.06" as="geometry"/>
                </mxCell>
                <mxCell id="528" value="&lt;span style=&quot;font-size: 10px;&quot;&gt;&lt;b&gt;PS63&lt;/b&gt;&lt;/span&gt;" style="text;html=1;strokeColor=none;fillColor=none;align=center;verticalAlign=middle;whiteSpace=wrap;rounded=0;labelBackgroundColor=none;fontFamily=Helvetica;fontSize=12;fontColor=default;" parent="1" vertex="1">
                    <mxGeometry x="1137" y="384" width="53" height="29.45" as="geometry"/>
                </mxCell>
                <mxCell id="529" value="&lt;span style=&quot;font-size: 10px;&quot;&gt;&lt;b&gt;PS64&lt;/b&gt;&lt;/span&gt;" style="text;html=1;strokeColor=none;fillColor=none;align=center;verticalAlign=middle;whiteSpace=wrap;rounded=0;labelBackgroundColor=none;fontFamily=Helvetica;fontSize=12;fontColor=default;" parent="1" vertex="1">
                    <mxGeometry x="1297" y="383" width="53" height="29.45" as="geometry"/>
                </mxCell>
                <mxCell id="530" value="&lt;span style=&quot;font-size: 10px;&quot;&gt;&lt;b&gt;TS61&lt;/b&gt;&lt;/span&gt;" style="text;html=1;strokeColor=none;fillColor=none;align=center;verticalAlign=middle;whiteSpace=wrap;rounded=0;labelBackgroundColor=none;fontFamily=Helvetica;fontSize=12;fontColor=default;" parent="1" vertex="1">
                    <mxGeometry x="1139" y="471.65" width="53" height="29.45" as="geometry"/>
                </mxCell>
                <mxCell id="531" value="&lt;span style=&quot;font-size: 10px;&quot;&gt;&lt;b&gt;TS62&lt;/b&gt;&lt;/span&gt;" style="text;html=1;strokeColor=none;fillColor=none;align=center;verticalAlign=middle;whiteSpace=wrap;rounded=0;labelBackgroundColor=none;fontFamily=Helvetica;fontSize=12;fontColor=default;" parent="1" vertex="1">
                    <mxGeometry x="1299" y="473.65" width="53" height="29.45" as="geometry"/>
                </mxCell>
                <mxCell id="567" value="" style="rounded=1;arcSize=50;whiteSpace=wrap;html=1;perimeterSpacing=1;strokeWidth=2;fillColor=#f0a30a;fontColor=#000000;strokeColor=#BD7000;movable=1;resizable=1;rotatable=1;deletable=1;editable=1;connectable=1;container=0;" parent="1" vertex="1">
                    <mxGeometry x="1382" y="419.04999999999995" width="96" height="48" as="geometry"/>
                </mxCell>
                <mxCell id="568" value="" style="endArrow=none;html=1;strokeWidth=2;exitX=1;exitY=0.5;exitDx=0;exitDy=0;entryX=0;entryY=0.5;entryDx=0;entryDy=0;fillColor=#f0a30a;strokeColor=#BD7000;" parent="1" target="567" edge="1">
                    <mxGeometry width="50" height="50" relative="1" as="geometry">
                        <mxPoint x="1281.9999999999995" y="443.05999999999995" as="sourcePoint"/>
                        <mxPoint x="1319" y="505" as="targetPoint"/>
                    </mxGeometry>
                </mxCell>
                <mxCell id="569" value="&lt;font style=&quot;font-size: 10px;&quot;&gt;&lt;b&gt;MV52&lt;/b&gt;&lt;/font&gt;" style="text;html=1;strokeColor=none;fillColor=none;align=center;verticalAlign=middle;whiteSpace=wrap;rounded=0;labelBackgroundColor=none;fontFamily=Helvetica;fontSize=12;fontColor=default;" parent="1" vertex="1">
                    <mxGeometry x="224.27" y="394.75" width="53" height="29.45" as="geometry"/>
                </mxCell>
                <mxCell id="570" value="&lt;font style=&quot;font-size: 13px;&quot;&gt;&lt;b&gt;Water&lt;br&gt;12bar&lt;br&gt;40L&lt;/b&gt;&lt;br&gt;&lt;/font&gt;" style="text;html=1;strokeColor=none;fillColor=#f0a30a;align=center;verticalAlign=middle;whiteSpace=wrap;rounded=0;labelBackgroundColor=none;fontFamily=Helvetica;fontSize=12;fontColor=#000000;" parent="1" vertex="1">
                    <mxGeometry x="598.5" y="380.33" width="53" height="29.45" as="geometry"/>
                </mxCell>
                <mxCell id="571" value="&lt;font style=&quot;font-size: 13px;&quot;&gt;&lt;b&gt;Water&lt;br&gt;12bar&lt;br&gt;40L&lt;/b&gt;&lt;br&gt;&lt;/font&gt;" style="text;html=1;strokeColor=none;fillColor=none;align=center;verticalAlign=middle;whiteSpace=wrap;rounded=0;labelBackgroundColor=none;fontFamily=Helvetica;fontSize=12;fontColor=#000000;" parent="1" vertex="1">
                    <mxGeometry x="598" y="477.28" width="53" height="29.45" as="geometry"/>
                </mxCell>
                <mxCell id="572" value="&lt;font style=&quot;font-size: 13px;&quot;&gt;&lt;b&gt;Water eject tank&lt;/b&gt;&lt;br&gt;&lt;/font&gt;" style="text;html=1;strokeColor=none;fillColor=#f0a30a;align=center;verticalAlign=middle;whiteSpace=wrap;rounded=0;labelBackgroundColor=none;fontFamily=Helvetica;fontSize=12;fontColor=#000000;" parent="1" vertex="1">
                    <mxGeometry x="1394" y="429.28" width="72" height="29.45" as="geometry"/>
                </mxCell>
                <mxCell id="574" value="&lt;div style=&quot;text-align: justify;&quot;&gt;&lt;br&gt;&lt;/div&gt;" style="text;html=1;strokeColor=#006EAF;fillColor=#1ba1e2;align=center;verticalAlign=middle;whiteSpace=wrap;rounded=0;labelBackgroundColor=none;fontFamily=Helvetica;fontSize=12;fontColor=#ffffff;" parent="1" vertex="1">
                    <mxGeometry x="1206" y="436" width="76" height="14.28" as="geometry"/>
                </mxCell>
                <mxCell id="573" value="&lt;div style=&quot;text-align: justify;&quot;&gt;&lt;b style=&quot;background-color: initial;&quot;&gt;&lt;font style=&quot;font-size: 9px;&quot;&gt;Cooling system&lt;/font&gt;&lt;/b&gt;&lt;/div&gt;" style="text;html=1;strokeColor=none;fillColor=none;align=center;verticalAlign=middle;whiteSpace=wrap;rounded=0;labelBackgroundColor=none;fontFamily=Helvetica;fontSize=12;fontColor=#ffffff;" parent="1" vertex="1">
                    <mxGeometry x="1207" y="434.45" width="76" height="14.28" as="geometry"/>
                </mxCell>
                <mxCell id="584" value="" style="verticalLabelPosition=bottom;aspect=fixed;html=1;verticalAlign=top;fillColor=#76608a;align=center;outlineConnect=0;shape=mxgraph.fluid_power.x11820;points=[[0.5,1,0]];rounded=1;strokeColor=#432D57;strokeWidth=2;fontFamily=Helvetica;fontSize=12;fontColor=#ffffff;direction=west;flipH=1;flipV=1;movable=1;resizable=1;rotatable=1;deletable=1;editable=1;connectable=1;container=0;" parent="1" vertex="1">
                    <mxGeometry x="43.96999999999994" y="240.44999999999996" width="24" height="36.06" as="geometry"/>
                </mxCell>
                <mxCell id="585" value="&lt;font style=&quot;font-size: 10px;&quot;&gt;&lt;b&gt;PS51&lt;/b&gt;&lt;/font&gt;" style="text;html=1;strokeColor=none;fillColor=none;align=center;verticalAlign=middle;whiteSpace=wrap;rounded=0;labelBackgroundColor=none;fontFamily=Helvetica;fontSize=12;fontColor=default;" parent="1" vertex="1">
                    <mxGeometry x="29.97" y="212.45" width="53" height="29.45" as="geometry"/>
                </mxCell>
                <mxCell id="586" value="" style="verticalLabelPosition=bottom;aspect=fixed;html=1;verticalAlign=top;fillColor=#76608a;align=center;outlineConnect=0;shape=mxgraph.fluid_power.x11820;points=[[0.5,1,0]];rounded=1;strokeColor=#432D57;strokeWidth=2;fontFamily=Helvetica;fontSize=12;fontColor=#ffffff;direction=east;flipH=0;flipV=0;movable=1;resizable=1;rotatable=1;deletable=1;editable=1;connectable=1;container=0;" parent="1" vertex="1">
                    <mxGeometry x="-48.00000000000006" y="240.44999999999987" width="24" height="36.06" as="geometry"/>
                </mxCell>
                <mxCell id="587" value="&lt;font style=&quot;font-size: 10px;&quot;&gt;&lt;b&gt;PG51&lt;/b&gt;&lt;/font&gt;" style="text;html=1;strokeColor=none;fillColor=none;align=center;verticalAlign=middle;whiteSpace=wrap;rounded=0;labelBackgroundColor=none;fontFamily=Helvetica;fontSize=12;fontColor=default;" parent="1" vertex="1">
                    <mxGeometry x="-62.03" y="211" width="53" height="29.45" as="geometry"/>
                </mxCell>
                <mxCell id="588" value="" style="verticalLabelPosition=bottom;align=center;html=1;verticalAlign=top;pointerEvents=1;dashed=0;shape=mxgraph.pid2valves.valve;valveType=gate;actuator=man;rounded=1;strokeColor=#432D57;strokeWidth=2;fontFamily=Helvetica;fontSize=12;fontColor=#ffffff;fillColor=#76608a;flipV=1;container=0;movable=1;resizable=1;rotatable=1;deletable=1;editable=1;connectable=1;direction=west;flipH=1;" parent="1" vertex="1">
                    <mxGeometry x="114.78000000000002" y="361" width="48" height="42" as="geometry"/>
                </mxCell>
                <mxCell id="589" value="&lt;span style=&quot;font-size: 10px;&quot;&gt;&lt;b&gt;MV51&lt;br&gt;&lt;/b&gt;&lt;/span&gt;" style="text;html=1;strokeColor=none;fillColor=none;align=center;verticalAlign=middle;whiteSpace=wrap;rounded=0;labelBackgroundColor=none;fontFamily=Helvetica;fontSize=12;fontColor=default;" parent="1" vertex="1">
                    <mxGeometry x="120.71000000000001" y="344.94" width="53" height="29.45" as="geometry"/>
                </mxCell>
                <mxCell id="590" value="" style="verticalLabelPosition=bottom;align=center;html=1;verticalAlign=top;pointerEvents=1;dashed=0;shape=mxgraph.pid2valves.valve;valveType=gate;actuator=solenoid;rounded=1;strokeColor=#432D57;strokeWidth=3;fontFamily=Helvetica;fontSize=12;fillColor=#76608a;flipV=1;container=0;movable=1;resizable=1;rotatable=1;deletable=1;editable=1;connectable=1;fontColor=#ffffff;aspect=fixed;rotation=-90;flipH=1;direction=north;" parent="1" vertex="1">
                    <mxGeometry x="403.755" y="359.935" width="45.5" height="53.93" as="geometry"/>
                </mxCell>
                <mxCell id="591" value="&lt;font style=&quot;font-size: 10px;&quot;&gt;&lt;b&gt;SV53&lt;/b&gt;&lt;/font&gt;" style="text;html=1;strokeColor=none;fillColor=none;align=center;verticalAlign=middle;whiteSpace=wrap;rounded=0;labelBackgroundColor=none;fontFamily=Helvetica;fontSize=12;fontColor=default;" parent="1" vertex="1">
                    <mxGeometry x="398" y="337.74000000000007" width="53" height="29.45" as="geometry"/>
                </mxCell>
                <mxCell id="592" value="" style="group" parent="1" vertex="1" connectable="0">
                    <mxGeometry x="345" y="394.75000000000006" width="53.000000000000455" height="98" as="geometry"/>
                </mxCell>
                <mxCell id="172" value="" style="endArrow=none;html=1;fontFamily=Helvetica;fontSize=12;fontColor=rgb(240, 240, 240);exitX=0.5;exitY=1;exitDx=0;exitDy=0;exitPerimeter=0;fillColor=#76608a;strokeColor=#432D57;movable=1;resizable=1;rotatable=1;deletable=1;editable=1;connectable=1;strokeWidth=2;" parent="592" edge="1">
                    <mxGeometry width="50" height="50" relative="1" as="geometry">
                        <mxPoint x="53.000000000000455" y="97.00499999999988" as="sourcePoint"/>
                        <mxPoint y="97" as="targetPoint"/>
                    </mxGeometry>
                </mxCell>
                <mxCell id="108" value="" style="endArrow=none;html=1;fontFamily=Helvetica;fontSize=12;fontColor=rgb(240, 240, 240);exitX=0.5;exitY=1;exitDx=0;exitDy=0;exitPerimeter=0;fillColor=#76608a;strokeColor=#432D57;movable=1;resizable=1;rotatable=1;deletable=1;editable=1;connectable=1;strokeWidth=2;" parent="592" edge="1">
                    <mxGeometry width="50" height="50" relative="1" as="geometry">
                        <mxPoint x="53.000000000000455" y="1.0549999999993815" as="sourcePoint"/>
                        <mxPoint y="1" as="targetPoint"/>
                    </mxGeometry>
                </mxCell>
                <mxCell id="537" value="" style="endArrow=none;html=1;strokeWidth=2;fillColor=#76608a;strokeColor=#432D57;" parent="592" edge="1">
                    <mxGeometry width="50" height="50" relative="1" as="geometry">
                        <mxPoint x="1" y="98" as="sourcePoint"/>
                        <mxPoint x="1" as="targetPoint"/>
                    </mxGeometry>
                </mxCell>
                <mxCell id="593" value="" style="endArrow=none;html=1;strokeWidth=2;fontFamily=Helvetica;fontSize=12;fontColor=default;fillColor=#76608a;strokeColor=#432D57;exitX=0.5;exitY=1;exitDx=0;exitDy=0;entryX=0.5;entryY=1;entryDx=0;entryDy=0;entryPerimeter=0;exitPerimeter=0;" parent="1" source="584" target="586" edge="1">
                    <mxGeometry width="50" height="50" relative="1" as="geometry">
                        <mxPoint x="-19.95000000000003" y="322.45" as="sourcePoint"/>
                        <mxPoint x="-20.02999999999996" y="278.45" as="targetPoint"/>
                    </mxGeometry>
                </mxCell>
                <mxCell id="594" value="" style="endArrow=none;html=1;strokeWidth=2;fontFamily=Helvetica;fontSize=12;fontColor=default;fillColor=#76608a;strokeColor=#432D57;entryX=0.5;entryY=1;entryDx=0;entryDy=0;entryPerimeter=0;" parent="1" target="584" edge="1">
                    <mxGeometry width="50" height="50" relative="1" as="geometry">
                        <mxPoint x="55.97" y="444.45" as="sourcePoint"/>
                        <mxPoint x="31.97000000000004" y="285.45" as="targetPoint"/>
                    </mxGeometry>
                </mxCell>
                <mxCell id="595" value="" style="endArrow=none;html=1;strokeWidth=2;fontFamily=Helvetica;fontSize=12;fontColor=default;fillColor=#76608a;strokeColor=#432D57;" parent="1" edge="1">
                    <mxGeometry width="50" height="50" relative="1" as="geometry">
                        <mxPoint x="277" y="444" as="sourcePoint"/>
                        <mxPoint x="346" y="444" as="targetPoint"/>
                    </mxGeometry>
                </mxCell>
                <mxCell id="596" value="" style="endArrow=none;html=1;strokeWidth=2;fillColor=#76608a;strokeColor=#432D57;" parent="1" edge="1">
                    <mxGeometry width="50" height="50" relative="1" as="geometry">
                        <mxPoint x="114.78" y="390.75" as="sourcePoint"/>
                        <mxPoint x="55.78" y="390.75" as="targetPoint"/>
                    </mxGeometry>
                </mxCell>
                <mxCell id="597" value="" style="endArrow=none;html=1;strokeWidth=2;fillColor=#76608a;strokeColor=#432D57;" parent="1" edge="1">
                    <mxGeometry width="50" height="50" relative="1" as="geometry">
                        <mxPoint x="496" y="492" as="sourcePoint"/>
                        <mxPoint x="496" y="396" as="targetPoint"/>
                    </mxGeometry>
                </mxCell>
            </root>
        </mxGraphModel>
    </diagram>
</mxfile>